<svg width="106" height="106" viewBox="0 0 106 106" fill="none" xmlns="http://www.w3.org/2000/svg">
<rect opacity="0.14" width="106" height="106" rx="30" fill="#12626D"/>
<g clip-path="url(#clip0_80_763)">
<path d="M67.9372 71.7518C68.1342 71.9724 68.2857 72.2297 68.3832 72.5089C68.4807 72.7882 68.5221 73.0839 68.5052 73.3792C68.4883 73.6745 68.4133 73.9635 68.2845 74.2298C68.1558 74.4961 67.9758 74.7344 67.7549 74.931L64.1864 78.1125C63.575 78.7178 62.8499 79.1962 62.0529 79.5202C61.2559 79.8441 60.4027 80.0073 59.5424 80.0003C58.6501 80.002 57.7663 79.8276 56.9416 79.4871C56.1169 79.1466 55.3675 78.6465 54.7364 78.0158L51.2624 74.9243C51.0417 74.7278 50.8618 74.4897 50.7331 74.2237C50.6044 73.9577 50.5293 73.669 50.5122 73.374C50.4776 72.7782 50.6811 72.193 51.0779 71.7473C51.4747 71.3015 52.0324 71.0316 52.6282 70.997C52.9232 70.9799 53.2187 71.021 53.4978 71.1181C53.7769 71.2152 54.0342 71.3663 54.2549 71.5628L57.2586 74.2493V57.5003C57.2586 56.9035 57.4957 56.3312 57.9177 55.9093C58.3396 55.4873 58.9119 55.2503 59.5086 55.2503C60.1054 55.2503 60.6777 55.4873 61.0996 55.9093C61.5216 56.3312 61.7587 56.9035 61.7587 57.5003V74.2515L64.7624 71.5695C65.2077 71.173 65.7922 70.9695 66.3875 71.0037C66.9828 71.0379 67.5401 71.3069 67.9372 71.7518ZM67.0597 42.5625C66.6733 42.4425 66.3227 42.2287 66.0392 41.9401C65.7558 41.6515 65.5482 41.2972 65.4352 40.9088C64.2438 37.084 61.8106 33.7659 58.5208 31.4799C55.231 29.194 51.2726 28.0708 47.2725 28.2883C43.2723 28.5057 39.459 30.0514 36.4364 32.6805C33.4138 35.3096 31.3546 38.8719 30.5849 42.8033C29.7951 46.779 30.4325 50.906 32.3849 54.4583C30.1089 55.6333 28.2582 57.4918 27.0927 59.7728C25.9272 62.0537 25.5056 64.6424 25.8869 67.1753C26.4734 70.1178 28.0487 72.7713 30.3514 74.6949C32.654 76.6186 35.5454 77.6967 38.5454 77.7503H43.7586C44.3554 77.7503 44.9277 77.5132 45.3496 77.0913C45.7716 76.6693 46.0086 76.097 46.0086 75.5003C46.0086 74.9035 45.7716 74.3312 45.3496 73.9093C44.9277 73.4873 44.3554 73.2503 43.7586 73.2503H38.5454C36.6238 73.2134 34.7703 72.5318 33.2826 71.3151C31.7949 70.0983 30.7592 68.4169 30.3419 66.5408C30.0976 64.9288 30.3642 63.2808 31.1043 61.828C31.8443 60.3753 33.0208 59.1908 34.4684 58.4408C35.5002 57.8705 36.266 56.9168 36.5999 55.7862C36.9338 54.6555 36.8091 53.4389 36.2527 52.3995C35.379 50.7333 34.8633 48.9028 34.7385 47.0256C34.6138 45.1483 34.8828 43.2657 35.5283 41.4986C36.1739 39.7314 37.1816 38.1186 38.487 36.7638C39.7924 35.4089 41.3665 34.3419 43.1085 33.6311C44.8504 32.9203 46.7217 32.5814 48.6023 32.6363C50.4829 32.6911 52.3312 33.1384 54.0288 33.9495C55.7264 34.7606 57.2357 35.9175 58.4599 37.3461C59.6841 38.7748 60.5962 40.4435 61.1376 42.2453C61.4706 43.3314 62.0639 44.3197 62.8658 45.1243C63.6677 45.929 64.654 46.5256 65.7389 46.8623C68.6781 47.7566 71.2219 49.6313 72.9464 52.1739C74.6709 54.7164 75.4719 57.7732 75.2159 60.8348C75.0465 63.2153 74.1767 65.4926 72.7162 67.38C72.3524 67.8532 72.1916 68.4515 72.269 69.0433C72.3465 69.6351 72.6558 70.1719 73.129 70.5356C73.6022 70.8994 74.2006 71.0602 74.7923 70.9828C75.3841 70.9053 75.9209 70.596 76.2846 70.1228C78.267 67.5383 79.4552 64.4333 79.7047 61.1858C80.0445 57.1036 78.9747 53.0282 76.6736 49.6393C74.3725 46.2503 70.9793 43.7526 67.0597 42.5625Z" fill="#12626D"/>
</g>
<defs>
<clipPath id="clip0_80_763">
<rect width="54" height="54" fill="white" transform="translate(25.7583 26)"/>
</clipPath>
</defs>
</svg>
