<svg width="106" height="106" viewBox="0 0 106 106" fill="none" xmlns="http://www.w3.org/2000/svg">
<rect opacity="0.14" width="106" height="106" rx="30" fill="#12626D"/>
<g clip-path="url(#clip0_80_760)">
<path d="M73.0083 66.4995C71.2631 66.5015 69.5871 67.1826 68.3351 68.3985L61.6751 65.0663C61.72 64.796 61.7478 64.5232 61.7583 64.2495C61.7478 63.9758 61.72 63.703 61.6751 63.4328L68.3351 60.1005C69.4566 61.1747 70.9147 61.8284 72.4627 61.9511C74.0108 62.0737 75.5536 61.6578 76.8303 60.7736C78.1069 59.8895 79.0389 58.5914 79.4684 57.0992C79.898 55.6069 79.7988 54.012 79.1877 52.5844C78.5765 51.1568 77.4909 49.9842 76.1146 49.2651C74.7383 48.5459 73.1558 48.3243 71.6348 48.6378C70.1139 48.9513 68.748 49.7807 67.7683 50.9855C66.7885 52.1903 66.2551 53.6966 66.2583 55.2495C66.2689 55.5232 66.2967 55.796 66.3416 56.0663L59.6816 59.3985C58.729 58.4768 57.526 57.856 56.2229 57.6134C54.9197 57.3709 53.5739 57.5175 52.3535 58.0348C51.1331 58.5522 50.092 59.4174 49.3601 60.5226C48.6282 61.6278 48.2379 62.924 48.2379 64.2495C48.2379 65.5751 48.6282 66.8713 49.3601 67.9765C50.092 69.0816 51.1331 69.9469 52.3535 70.4642C53.5739 70.9815 54.9197 71.1281 56.2229 70.8856C57.526 70.6431 58.729 70.0222 59.6816 69.1005L66.3416 72.4328C66.2967 72.703 66.2689 72.9758 66.2583 73.2495C66.2583 74.5845 66.6542 75.8896 67.3959 76.9996C68.1376 78.1096 69.1918 78.9748 70.4252 79.4857C71.6586 79.9966 73.0158 80.1303 74.3252 79.8698C75.6346 79.6094 76.8373 78.9665 77.7813 78.0225C78.7253 77.0785 79.3682 75.8758 79.6286 74.5664C79.8891 73.257 79.7554 71.8998 79.2445 70.6664C78.7336 69.433 77.8685 68.3788 76.7584 67.6371C75.6484 66.8954 74.3434 66.4995 73.0083 66.4995ZM73.0083 52.9995C73.4534 52.9995 73.8884 53.1315 74.2584 53.3787C74.6284 53.6259 74.9168 53.9773 75.0871 54.3885C75.2574 54.7996 75.3019 55.252 75.2151 55.6885C75.1283 56.1249 74.914 56.5258 74.5993 56.8405C74.2847 57.1552 73.8838 57.3695 73.4473 57.4563C73.0108 57.5431 72.5584 57.4985 72.1473 57.3282C71.7362 57.1579 71.3848 56.8696 71.1375 56.4996C70.8903 56.1295 70.7583 55.6945 70.7583 55.2495C70.7583 54.6528 70.9954 54.0805 71.4174 53.6585C71.8393 53.2366 72.4116 52.9995 73.0083 52.9995ZM55.0083 66.4995C54.5633 66.4995 54.1283 66.3676 53.7583 66.1203C53.3883 65.8731 53.0999 65.5217 52.9296 65.1106C52.7593 64.6994 52.7148 64.247 52.8016 63.8106C52.8884 63.3741 53.1027 62.9732 53.4174 62.6585C53.732 62.3439 54.1329 62.1296 54.5694 62.0428C55.0058 61.9559 55.4582 62.0005 55.8694 62.1708C56.2805 62.3411 56.6319 62.6295 56.8792 62.9995C57.1264 63.3695 57.2583 63.8045 57.2583 64.2495C57.2583 64.8463 57.0213 65.4186 56.5993 65.8405C56.1774 66.2625 55.6051 66.4995 55.0083 66.4995ZM73.0083 75.4995C72.5633 75.4995 72.1283 75.3676 71.7583 75.1203C71.3883 74.8731 71.0999 74.5217 70.9296 74.1106C70.7593 73.6994 70.7148 73.247 70.8016 72.8106C70.8884 72.3741 71.1027 71.9732 71.4174 71.6585C71.732 71.3439 72.1329 71.1296 72.5694 71.0428C73.0058 70.9559 73.4582 71.0005 73.8694 71.1708C74.2805 71.3411 74.6319 71.6295 74.8792 71.9995C75.1264 72.3695 75.2583 72.8045 75.2583 73.2495C75.2583 73.8463 75.0213 74.4186 74.5993 74.8405C74.1774 75.2625 73.6051 75.4995 73.0083 75.4995ZM52.7583 75.4995C52.7583 76.0963 52.5213 76.6686 52.0993 77.0905C51.6774 77.5125 51.1051 77.7495 50.5083 77.7495H38.5361C35.5375 77.6948 32.6477 76.616 30.3468 74.6924C28.0458 72.7688 26.472 70.116 25.8866 67.1745C25.5034 64.6426 25.9236 62.0542 27.088 59.7735C28.2524 57.4928 30.1024 55.6344 32.3778 54.4598C30.4245 50.9078 29.7871 46.7805 30.5778 42.8048C31.3467 38.8724 33.4057 35.309 36.4286 32.679C39.4514 30.049 43.2654 28.5028 47.2663 28.2853C51.2673 28.0679 55.2264 29.1915 58.5165 31.4784C61.8067 33.7652 64.2398 37.0844 65.4303 40.9103C65.5438 41.2985 65.7514 41.6527 66.0349 41.9412C66.3183 42.2297 66.6687 42.4437 67.0548 42.564C67.3437 42.6453 67.6133 42.7835 67.8479 42.9706C68.0826 43.1576 68.2774 43.3897 68.421 43.6532C68.5645 43.9167 68.654 44.2062 68.684 44.5047C68.714 44.8033 68.684 45.1048 68.5958 45.3916C68.5076 45.6784 68.3629 45.9446 68.1702 46.1746C67.9775 46.4046 67.7408 46.5938 67.4739 46.731C67.2071 46.8682 66.9155 46.9506 66.6163 46.9734C66.3171 46.9962 66.0164 46.9589 65.7318 46.8638C64.6471 46.5265 63.6611 45.9295 62.8596 45.1244C62.0581 44.3194 61.4653 43.3308 61.1328 42.2445C60.5914 40.4427 59.6793 38.774 58.4551 37.3454C57.2309 35.9168 55.7216 34.7598 54.024 33.9488C52.3264 33.1377 50.4781 32.6904 48.5975 32.6355C46.7169 32.5807 44.8456 32.9196 43.1037 33.6304C41.3617 34.3411 39.7876 35.4082 38.4822 36.763C37.1768 38.1179 36.1691 39.7306 35.5235 41.4978C34.878 43.265 34.609 45.1476 34.7337 47.0248C34.8585 48.9021 35.3742 50.7325 36.2478 52.3988C36.8046 53.4382 36.9297 54.655 36.5962 55.786C36.2628 56.917 35.4974 57.8712 34.4658 58.4423C33.0176 59.1917 31.8405 60.376 31.0999 61.8288C30.3594 63.2817 30.0926 64.93 30.3371 66.5423C30.7536 68.4178 31.7885 70.0988 33.2755 71.3153C34.7625 72.5317 36.6153 73.213 38.5361 73.2495H50.5083C51.1051 73.2495 51.6774 73.4866 52.0993 73.9085C52.5213 74.3305 52.7583 74.9028 52.7583 75.4995Z" fill="#12626D"/>
</g>
<defs>
<clipPath id="clip0_80_760">
<rect width="54" height="54" fill="white" transform="translate(25.7583 26)"/>
</clipPath>
</defs>
</svg>
