<svg width="1503" height="95" viewBox="0 0 1503 95" fill="none" xmlns="http://www.w3.org/2000/svg">
<path d="M604.609 5.5509C604.882 5.5901 605.135 5.40029 605.174 5.12695C605.214 4.8536 605.024 4.60023 604.75 4.56103L604.68 5.05596L604.609 5.5509ZM0.086 79.5255L0 80.018C42.0694 87.3851 71.9905 84.4979 96.5411 76.4767C121.075 68.4612 140.218 55.3238 160.694 42.2776C181.18 29.2256 203.035 16.2378 233.07 8.41158C263.104 0.58524 301.351 -2.08723 354.609 5.5509L354.68 5.05596L354.75 4.56103C301.392 -3.09157 263.008 -0.42297 232.817 7.44389C202.627 15.3108 180.664 28.3684 160.157 41.4342C139.64 54.5058 120.617 67.5587 96.2305 75.5262C71.8613 83.4881 42.1092 86.3768 0.172489 79.033L0.086 79.5255Z" fill="#12626D" stroke="#12626D" stroke-width="2"/>
<path d="M1251.984 5.5509C1252.257 5.5901 1252.511 5.40029 1252.55 5.12695C1252.589 4.8536 1252.399 4.60023 1252.126 4.56103L1252.055 5.05596L1251.984 5.5509ZM597.462 79.5255L597.375 80.018C639.445 87.3851 669.366 84.4979 693.917 76.4767C718.45 68.4612 737.593 55.3238 758.069 42.2776C778.555 29.2256 800.411 16.2378 830.445 8.41158C860.48 0.58524 898.726 -2.08723 951.984 5.5509L952.055 5.05596L952.126 4.56103C898.767 -3.09157 860.383 -0.42297 830.193 7.44389C800.002 15.3108 778.039 28.3684 757.532 41.4342C737.016 54.5058 717.992 67.5587 693.606 75.5262C669.237 83.4881 639.485 86.3768 597.548 79.033L597.462 79.5255Z" fill="#12626D" stroke="#12626D" stroke-width="2"/>
</svg>
