<svg width="106" height="106" viewBox="0 0 106 106" fill="none" xmlns="http://www.w3.org/2000/svg">
<rect opacity="0.14" width="106" height="106" rx="30" fill="#12626D"/>
<path d="M67.1588 42.6025C66.7518 42.4864 66.3803 42.2704 66.0781 41.9741C65.7759 41.6778 65.5526 41.3106 65.4285 40.906C64.7395 38.5706 63.5838 36.3993 62.0314 34.5234C60.479 32.6476 58.5621 31.1062 56.3968 29.9925C54.2315 28.8789 51.8627 28.2161 49.4339 28.0443C47.005 27.8726 44.5666 28.1954 42.2661 28.9933C39.9656 29.7911 37.8509 31.0474 36.05 32.6862C34.249 34.3249 32.7993 36.312 31.7885 38.5272C30.7777 40.7424 30.2268 43.1396 30.1693 45.5739C30.1117 48.0081 30.5486 50.4287 31.4535 52.6893C31.6614 53.165 31.7062 53.6961 31.5808 54.1999C31.4555 54.7037 31.1671 55.1519 30.7605 55.4748C28.9689 56.8045 27.5701 58.5939 26.7122 60.6535C25.8543 62.7131 25.5692 64.9663 25.887 67.1747C26.383 70.1602 27.933 72.8689 30.2556 74.8092C32.5782 76.7495 35.5194 77.7928 38.5455 77.7497H50.5088C51.1055 77.7497 51.6778 77.5127 52.0998 77.0907C52.5217 76.6688 52.7588 76.0965 52.7588 75.4997C52.7588 74.903 52.5217 74.3307 52.0998 73.9088C51.6778 73.4868 51.1055 73.2497 50.5088 73.2497H38.5455C36.6022 73.2969 34.7062 72.6463 33.2012 71.4158C31.6963 70.1854 30.6819 68.4565 30.342 66.5425C30.1265 65.1356 30.3012 63.6966 30.8471 62.3822C31.393 61.0678 32.2892 59.9284 33.438 59.0882C34.6447 58.1864 35.5177 56.9092 35.9196 55.4573C36.3216 54.0054 36.2298 52.4611 35.6588 51.067C34.5296 48.0851 34.4716 44.8035 35.4945 41.7835C36.3117 39.4178 37.7751 37.3282 39.7189 35.7515C41.6626 34.1748 44.0091 33.1739 46.4925 32.8622C47.0686 32.7881 47.6487 32.7505 48.2295 32.7497C51.1389 32.7402 53.9731 33.6732 56.3078 35.4092C58.6425 37.1452 60.3521 39.5908 61.1805 42.3797C61.5039 43.4426 62.0866 44.4083 62.8761 45.1899C63.6655 45.9715 64.637 46.5445 65.703 46.8573C68.3119 47.6288 70.6228 49.179 72.3263 51.3001C74.0299 53.4213 75.0448 56.0123 75.2352 58.7262C75.4256 61.4401 74.7824 64.1474 73.3917 66.4856C72.0009 68.8239 69.9291 70.6815 67.4535 71.8097C67.0871 71.9973 66.7809 72.2841 66.5696 72.6374C66.3584 72.9907 66.2507 73.3962 66.2588 73.8077C66.2544 74.1801 66.3436 74.5475 66.5182 74.8764C66.6928 75.2052 66.9472 75.485 67.2581 75.6899C67.569 75.8948 67.9263 76.0184 68.2974 76.0493C68.6685 76.0801 69.0413 76.0173 69.3818 75.8665C78.6833 71.3957 83.7368 59.635 75.8618 48.2725C73.6934 45.4441 70.6222 43.4431 67.1588 42.6025Z" fill="#12626D"/>
<path d="M67.8493 63.5906C68.2711 63.1686 68.5081 62.5964 68.5081 61.9998C68.5081 61.4032 68.2711 60.831 67.8493 60.4091L64.2808 56.8406C63.015 55.5751 61.2984 54.8643 59.5085 54.8643C57.7187 54.8643 56.0021 55.5751 54.7363 56.8406L51.1678 60.4091C50.7579 60.8334 50.5312 61.4018 50.5363 61.9917C50.5414 62.5817 50.778 63.146 51.1952 63.5632C51.6124 63.9803 52.1767 64.217 52.7666 64.2221C53.3566 64.2272 53.9249 64.0004 54.3493 63.5906L57.2585 60.6813V77.7498C57.2585 78.3466 57.4956 78.9188 57.9176 79.3408C58.3395 79.7628 58.9118 79.9998 59.5085 79.9998C60.1053 79.9998 60.6776 79.7628 61.0995 79.3408C61.5215 78.9188 61.7585 78.3466 61.7585 77.7498V60.6813L64.6678 63.5906C65.0897 64.0124 65.6619 64.2493 66.2585 64.2493C66.8552 64.2493 67.4274 64.0124 67.8493 63.5906Z" fill="#12626D"/>
</svg>
